<svg xmlns="http://www.w3.org/2000/svg" xmlns:xlink="http://www.w3.org/1999/xlink" version="1.1" x="0px" y="0px" viewBox="0 0 100 125" enable-background="new 0 0 100 100" xml:space="preserve"><path d="M85.432,49.079C79.013,36.704,65.105,28.708,50,28.708s-29.013,7.996-35.432,20.371L14.091,50l0.478,0.921  C20.987,63.296,34.895,71.292,50,71.292s29.013-7.996,35.432-20.371L85.909,50L85.432,49.079z M50,67.292  c-13.246,0-25.44-6.754-31.383-17.292C24.56,39.462,36.754,32.708,50,32.708S75.44,39.462,81.383,50  C75.44,60.538,63.246,67.292,50,67.292z M50,39.086c-6.018,0-10.914,4.896-10.914,10.914S43.982,60.914,50,60.914  S60.914,56.018,60.914,50S56.018,39.086,50,39.086z M50,56.914c-3.813,0-6.914-3.102-6.914-6.914s3.102-6.914,6.914-6.914  s6.914,3.102,6.914,6.914S53.813,56.914,50,56.914z"/><text x="0" y="115" fill="#000000" font-size="5px" font-weight="bold" font-family="'Helvetica Neue', Helvetica, Arial-Unicode, Arial, Sans-serif">Created by amante de icono</text><text x="0" y="120" fill="#000000" font-size="5px" font-weight="bold" font-family="'Helvetica Neue', Helvetica, Arial-Unicode, Arial, Sans-serif">from the Noun Project</text></svg>